@startuml

!theme monokai_npp from ..\..\.styles
scale 2

'skinparam linetype ortho

state " OPENED " as op
state " CLOSED " as cl
state " FLAGGED " as fl
state " QUESTIONED " as qu

hide empty description

'note "Game.on_left_click()" as n1
'note "Game.on_right_click()" as n2

[*] --> cl
op <-- cl : Game.on_left_click()
cl -right-> fl  : Game.on_right_click()
fl --> qu
qu --> cl

@enduml
